<?xml version='1.0' encoding='UTF-8'?>
<svg xmlns="http://www.w3.org/2000/svg" width="256" height="256" viewBox="0 0 256 256" role="img" aria-labelledby="icon-title">
  <title id="icon-title">3D Scanners &amp; 3D Printers</title>
  <metadata>Extracted from page 1 of Kanagam Banner 3 x 6 ft VIT Curved(2).pdf</metadata>
  <g id="09-3d-scanners-printers" transform="matrix(1.231496169 0 0 1.231496169 -535.877417641 -5101.021708103)"><path fill="none" stroke-width="5.6693" stroke-linecap="round" stroke-linejoin="round" stroke="rgb(84.313965%, 67.059326%, 41.567993%)" stroke-opacity="1" stroke-miterlimit="22.925586" d="M 469.714844 1024.691406 L 608.449219 1024.691406 C 612.148438 1024.691406 615.152344 1021.960938 615.152344 1018.59375 L 615.152344 864.289062 C 615.152344 860.921875 612.148438 858.191406 608.449219 858.191406 L 469.714844 858.191406 C 466.011719 858.191406 463.011719 860.921875 463.011719 864.289062 L 463.011719 1018.59375 C 463.011719 1021.960938 466.011719 1024.691406 469.714844 1024.691406 Z M 469.714844 1024.691406 " transform="matrix(1, 0, 0, -1, 0, 5184)" id="09-3d-scanners-printers-part-01"/>
<path fill="none" stroke-width="5.6693" stroke-linecap="round" stroke-linejoin="round" stroke="rgb(84.313965%, 67.059326%, 41.567993%)" stroke-opacity="1" stroke-miterlimit="22.925586" d="M 477.191406 1008.273438 L 600.96875 1008.273438 " transform="matrix(1, 0, 0, -1, 0, 5184)" id="09-3d-scanners-printers-part-02"/>
<path fill="none" stroke-width="5.6693" stroke-linecap="round" stroke-linejoin="round" stroke="rgb(84.313965%, 67.059326%, 41.567993%)" stroke-opacity="1" stroke-miterlimit="22.925586" d="M 477.191406 1008.273438 L 477.191406 873.433594 " transform="matrix(1, 0, 0, -1, 0, 5184)" id="09-3d-scanners-printers-part-03"/>
<path fill="none" stroke-width="5.6693" stroke-linecap="round" stroke-linejoin="round" stroke="rgb(84.313965%, 67.059326%, 41.567993%)" stroke-opacity="1" stroke-miterlimit="22.925586" d="M 600.96875 1008.273438 L 600.96875 873.433594 " transform="matrix(1, 0, 0, -1, 0, 5184)" id="09-3d-scanners-printers-part-04"/>
<path fill="none" stroke-width="5.6693" stroke-linecap="round" stroke-linejoin="round" stroke="rgb(84.313965%, 67.059326%, 41.567993%)" stroke-opacity="1" stroke-miterlimit="22.925586" d="M 463.011719 873.433594 L 615.152344 873.433594 " transform="matrix(1, 0, 0, -1, 0, 5184)" id="09-3d-scanners-printers-part-05"/>
<path fill="none" stroke-width="5.6693" stroke-linecap="round" stroke-linejoin="round" stroke="rgb(84.313965%, 67.059326%, 41.567993%)" stroke-opacity="1" stroke-miterlimit="22.925586" d="M 474.613281 858.191406 L 474.613281 851.15625 " transform="matrix(1, 0, 0, -1, 0, 5184)" id="09-3d-scanners-printers-part-06"/>
<path fill="none" stroke-width="5.6693" stroke-linecap="round" stroke-linejoin="round" stroke="rgb(84.313965%, 67.059326%, 41.567993%)" stroke-opacity="1" stroke-miterlimit="22.925586" d="M 603.546875 858.191406 L 603.546875 851.15625 " transform="matrix(1, 0, 0, -1, 0, 5184)" id="09-3d-scanners-printers-part-07"/>
<path fill="none" stroke-width="5.6693" stroke-linecap="round" stroke-linejoin="round" stroke="rgb(84.313965%, 67.059326%, 41.567993%)" stroke-opacity="1" stroke-miterlimit="22.925586" d="M 483.640625 989.515625 L 594.523438 989.515625 " transform="matrix(1, 0, 0, -1, 0, 5184)" id="09-3d-scanners-printers-part-08"/>
<path fill="none" stroke-width="5.6693" stroke-linecap="round" stroke-linejoin="round" stroke="rgb(84.313965%, 67.059326%, 41.567993%)" stroke-opacity="1" stroke-miterlimit="22.925586" d="M 523.867188 998.894531 L 554.296875 998.894531 C 556.574219 998.894531 558.421875 997.214844 558.421875 995.140625 L 558.421875 979.195312 C 558.421875 977.125 556.574219 975.445312 554.296875 975.445312 L 523.867188 975.445312 C 521.589844 975.445312 519.742188 977.125 519.742188 979.195312 L 519.742188 995.140625 C 519.742188 997.214844 521.589844 998.894531 523.867188 998.894531 Z M 523.867188 998.894531 " transform="matrix(1, 0, 0, -1, 0, 5184)" id="09-3d-scanners-printers-part-09"/>
<path fill="none" stroke-width="5.6693" stroke-linecap="round" stroke-linejoin="round" stroke="rgb(84.313965%, 67.059326%, 41.567993%)" stroke-opacity="1" stroke-miterlimit="22.925586" d="M 530.054688 975.445312 L 533.410156 964.890625 L 544.753906 964.890625 L 548.105469 975.445312 " transform="matrix(1, 0, 0, -1, 0, 5184)" id="09-3d-scanners-printers-part-10"/>
<path fill="none" stroke-width="5.6693" stroke-linecap="round" stroke-linejoin="round" stroke="rgb(84.313965%, 67.059326%, 41.567993%)" stroke-opacity="1" stroke-miterlimit="22.925586" d="M 539.082031 964.890625 L 539.082031 955.511719 " transform="matrix(1, 0, 0, -1, 0, 5184)" id="09-3d-scanners-printers-part-11"/>
<path fill="none" stroke-width="5.6693" stroke-linecap="round" stroke-linejoin="round" stroke="rgb(84.313965%, 67.059326%, 41.567993%)" stroke-opacity="1" stroke-miterlimit="22.925586" d="M 539.082031 942.613281 L 562.289062 930.886719 L 539.082031 919.164062 L 515.875 930.886719 Z M 539.082031 942.613281 " transform="matrix(1, 0, 0, -1, 0, 5184)" id="09-3d-scanners-printers-part-12"/>
<path fill="none" stroke-width="5.6693" stroke-linecap="round" stroke-linejoin="round" stroke="rgb(84.313965%, 67.059326%, 41.567993%)" stroke-opacity="1" stroke-miterlimit="22.925586" d="M 515.875 930.886719 L 515.875 903.917969 L 539.082031 892.195312 L 562.289062 903.917969 L 562.289062 930.886719 " transform="matrix(1, 0, 0, -1, 0, 5184)" id="09-3d-scanners-printers-part-13"/>
<path fill="none" stroke-width="5.6693" stroke-linecap="round" stroke-linejoin="round" stroke="rgb(84.313965%, 67.059326%, 41.567993%)" stroke-opacity="1" stroke-miterlimit="22.925586" d="M 539.082031 919.164062 L 539.082031 892.195312 " transform="matrix(1, 0, 0, -1, 0, 5184)" id="09-3d-scanners-printers-part-14"/>
<path fill="none" stroke-width="5.6693" stroke-linecap="round" stroke-linejoin="round" stroke="rgb(84.313965%, 67.059326%, 41.567993%)" stroke-opacity="1" stroke-miterlimit="22.925586" d="M 527.476562 925.023438 L 550.683594 936.75 " transform="matrix(1, 0, 0, -1, 0, 5184)" id="09-3d-scanners-printers-part-15"/>
<path fill="none" stroke-width="5.6693" stroke-linecap="round" stroke-linejoin="round" stroke="rgb(84.313965%, 67.059326%, 41.567993%)" stroke-opacity="1" stroke-miterlimit="22.925586" d="M 490.085938 891.023438 L 588.078125 891.023438 " transform="matrix(1, 0, 0, -1, 0, 5184)" id="09-3d-scanners-printers-part-16"/>
<path fill="none" stroke-width="5.6693" stroke-linecap="round" stroke-linejoin="round" stroke="rgb(84.313965%, 67.059326%, 41.567993%)" stroke-opacity="1" stroke-miterlimit="22.925586" d="M 483.640625 881.640625 L 594.523438 881.640625 " transform="matrix(1, 0, 0, -1, 0, 5184)" id="09-3d-scanners-printers-part-17"/>
<path fill="none" stroke-width="5.6693" stroke-linecap="round" stroke-linejoin="round" stroke="rgb(84.313965%, 67.059326%, 41.567993%)" stroke-opacity="1" stroke-miterlimit="22.925586" d="M 490.085938 891.023438 L 483.640625 881.640625 " transform="matrix(1, 0, 0, -1, 0, 5184)" id="09-3d-scanners-printers-part-18"/>
<path fill="none" stroke-width="5.6693" stroke-linecap="round" stroke-linejoin="round" stroke="rgb(84.313965%, 67.059326%, 41.567993%)" stroke-opacity="1" stroke-miterlimit="22.925586" d="M 588.078125 891.023438 L 594.523438 881.640625 " transform="matrix(1, 0, 0, -1, 0, 5184)" id="09-3d-scanners-printers-part-19"/>
</g>
</svg>
