<?xml version='1.0' encoding='UTF-8'?>
<svg xmlns="http://www.w3.org/2000/svg" width="256" height="256" viewBox="0 0 256 256" role="img" aria-labelledby="icon-title">
  <title id="icon-title">Skill Development &amp; Training</title>
  <metadata>Extracted from page 1 of Kanagam Banner 3 x 6 ft VIT Curved(2).pdf</metadata>
  <g id="10-skill-development-training" transform="matrix(1.028113276 0 0 1.028113276 -418.695635900 -4580.211794548)"><path fill="none" stroke-width="8.5039" stroke-linecap="butt" stroke-linejoin="miter" stroke="rgb(86.274719%, 69.020081%, 39.607239%)" stroke-opacity="1" stroke-miterlimit="10.000001" d="M 436.304688 615.972656 L 531.746094 656.433594 L 627.1875 615.972656 L 531.746094 583.257812 Z M 436.304688 615.972656 " transform="matrix(1, 0, 0, -1, 0, 5184)" id="10-skill-development-training-part-01"/>
<path fill="none" stroke-width="8.5039" stroke-linecap="butt" stroke-linejoin="miter" stroke="rgb(86.274719%, 69.020081%, 39.607239%)" stroke-opacity="1" stroke-miterlimit="10.000001" d="M 479.253906 598.753906 L 479.253906 560.875 " transform="matrix(1, 0, 0, -1, 0, 5184)" id="10-skill-development-training-part-02"/>
<path fill="none" stroke-width="8.5039" stroke-linecap="butt" stroke-linejoin="miter" stroke="rgb(86.274719%, 69.020081%, 39.607239%)" stroke-opacity="1" stroke-miterlimit="10.000001" d="M 479.253906 560.875 L 584.238281 560.875 " transform="matrix(1, 0, 0, -1, 0, 5184)" id="10-skill-development-training-part-03"/>
<path fill="none" stroke-width="8.5039" stroke-linecap="butt" stroke-linejoin="miter" stroke="rgb(86.274719%, 69.020081%, 39.607239%)" stroke-opacity="1" stroke-miterlimit="10.000001" d="M 584.238281 560.875 L 584.238281 598.753906 " transform="matrix(1, 0, 0, -1, 0, 5184)" id="10-skill-development-training-part-04"/>
<path fill="none" stroke-width="8.5039" stroke-linecap="butt" stroke-linejoin="miter" stroke="rgb(86.274719%, 69.020081%, 39.607239%)" stroke-opacity="1" stroke-miterlimit="10.000001" d="M 627.1875 615.972656 L 627.1875 564.320312 " transform="matrix(1, 0, 0, -1, 0, 5184)" id="10-skill-development-training-part-05"/>
<path fill="none" stroke-width="8.5039" stroke-linecap="butt" stroke-linejoin="miter" stroke="rgb(86.274719%, 69.020081%, 39.607239%)" stroke-opacity="1" stroke-miterlimit="10.000001" d="M 632.914062 557.433594 C 632.914062 560.285156 630.351562 562.597656 627.1875 562.597656 C 624.023438 562.597656 621.460938 560.285156 621.460938 557.433594 C 621.460938 554.582031 624.023438 552.265625 627.1875 552.265625 C 630.351562 552.265625 632.914062 554.582031 632.914062 557.433594 Z M 632.914062 557.433594 " transform="matrix(1, 0, 0, -1, 0, 5184)" id="10-skill-development-training-part-06"/>
</g>
</svg>
