<?xml version='1.0' encoding='UTF-8'?>
<svg xmlns="http://www.w3.org/2000/svg" width="256" height="256" viewBox="0 0 256 256" role="img" aria-labelledby="icon-title">
  <title id="icon-title">Venture Creation</title>
  <metadata>Extracted from page 2 of Kanagam Banner 3 x 6 ft VIT Curved(2).pdf</metadata>
  <g id="18-venture-creation" transform="matrix(1.007011792 0 0 1.007011792 -362.701640186 -4461.623907845)"><path fill="none" stroke-width="12.2394" stroke-linecap="round" stroke-linejoin="round" stroke="rgb(86.274719%, 69.020081%, 39.607239%)" stroke-opacity="1" stroke-miterlimit="10.000001" d="M 921.333145 1166.219639 C 892.534424 1295.825564 964.53512 1403.822713 1065.334536 1461.420153 C 1115.734244 1353.423005 1108.536511 1231.022602 1022.13256 1151.824173 Z M 921.333145 1166.219639 " transform="matrix(0.50146, 0, 0, -0.50146, 0, 5184)" id="18-venture-creation-part-01"/>
<path fill="none" stroke-width="12.2394" stroke-linecap="round" stroke-linejoin="round" stroke="rgb(86.274719%, 69.020081%, 39.607239%)" stroke-opacity="1" stroke-miterlimit="10.000001" d="M 1043.733548 1317.426552 C 1043.733548 1337.306004 1027.616547 1353.423005 1007.737095 1353.423005 C 987.849853 1353.423005 971.732853 1337.306004 971.732853 1317.426552 C 971.732853 1297.53931 987.849853 1281.422309 1007.737095 1281.422309 C 1027.616547 1281.422309 1043.733548 1297.53931 1043.733548 1317.426552 Z M 1043.733548 1317.426552 " transform="matrix(0.50146, 0, 0, -0.50146, 0, 5184)" id="18-venture-creation-part-02"/>
<path fill="none" stroke-width="12.2394" stroke-linecap="round" stroke-linejoin="round" stroke="rgb(86.274719%, 69.020081%, 39.607239%)" stroke-opacity="1" stroke-miterlimit="10.000001" d="M 914.135412 1252.623589 L 827.731462 1180.622894 L 827.731462 1087.021211 L 935.7364 1159.021906 " transform="matrix(0.50146, 0, 0, -0.50146, 0, 5184)" id="18-venture-creation-part-03"/>
<path fill="none" stroke-width="12.2394" stroke-linecap="round" stroke-linejoin="round" stroke="rgb(86.274719%, 69.020081%, 39.607239%)" stroke-opacity="1" stroke-miterlimit="10.000001" d="M 1065.334536 1223.824869 L 1115.734244 1130.223186 L 1086.935523 1051.024758 L 1007.737095 1151.824173 " transform="matrix(0.50146, 0, 0, -0.50146, 0, 5184)" id="18-venture-creation-part-04"/>
<path fill="none" stroke-width="12.2394" stroke-linecap="round" stroke-linejoin="round" stroke="rgb(86.274719%, 69.020081%, 39.607239%)" stroke-opacity="1" stroke-miterlimit="10.000001" d="M 942.934132 1115.819931 L 914.135412 1051.024758 " transform="matrix(0.50146, 0, 0, -0.50146, 0, 5184)" id="18-venture-creation-part-05"/>
<path fill="none" stroke-width="12.2394" stroke-linecap="round" stroke-linejoin="round" stroke="rgb(86.274719%, 69.020081%, 39.607239%)" stroke-opacity="1" stroke-miterlimit="10.000001" d="M 986.136108 1108.622198 L 964.53512 1036.621503 " transform="matrix(0.50146, 0, 0, -0.50146, 0, 5184)" id="18-venture-creation-part-06"/>
</g>
</svg>
